<svg width="241" height="44" viewBox="0 0 241 44" fill="none" xmlns="http://www.w3.org/2000/svg">
<path d="M8.16935 26.5216L4.97357 22.8798L20.0636 7.40752L20.1059 7.34437L17.0583 7.09176V3.38683H29.7356V7.09176L26.8361 7.66013L8.16935 26.5216ZM0 34.0367V30.3528L3.28044 29.7213V7.72328L0 7.09176V3.38683H12.5926V7.09176L9.46036 7.72328V29.7213L12.5926 30.3528V34.0367H0ZM17.7355 34.0367V30.3528L20.6138 30.1002H20.635L12.8043 19.3643L16.889 15.3015L27.8096 29.8266L30.8361 30.3528V34.0367H17.7355Z" fill="#313332"/>
<path d="M33.7549 34.0367V30.3528L36.7179 29.7213V15.5963L33.4374 14.9647V11.2598H42.4745L42.7073 14.0806L42.7496 14.5858C43.314 13.3508 44.0124 12.4176 44.8449 11.7861C45.6773 11.1546 46.672 10.8388 47.829 10.8388C48.1959 10.8388 48.598 10.8739 49.0354 10.944C49.4728 11.0002 49.8608 11.0774 50.1994 11.1756L49.5433 16.8383L46.4745 16.6698C45.5997 16.6277 44.8872 16.7751 44.3369 17.1119C43.8008 17.4487 43.3211 17.9329 42.8978 18.5644V29.7213L45.8608 30.3528V34.0367H33.7549Z" fill="#313332"/>
<path d="M52.9912 34.0367V30.416L64.9066 15.5542H58.7267L58.0282 19.4485H53.4991V11.2598H72.314V15.1963L61.0759 29.6371H67.5521L68.4622 25.448H72.8008V34.0367H52.9912Z" fill="#313332"/>
<path d="M82.6826 43.2359C82.1464 43.2359 81.575 43.1868 80.9683 43.0885C80.3757 43.0043 79.8113 42.885 79.2751 42.7307L79.9735 38.2258C80.2416 38.2819 80.5379 38.324 80.8624 38.3521C81.187 38.3802 81.4691 38.3942 81.709 38.3942C82.5979 38.3942 83.3669 38.1627 84.0159 37.6995C84.6649 37.2364 85.1376 36.5698 85.4339 35.6997L85.9418 34.2893L78.2804 15.3647L75.4656 14.9647V11.2598H87.6138V14.9647L84.8201 15.3858L88.8625 26.6689H88.9895L93.2434 15.3436L90.5133 14.9647V11.2598H101.836V14.9647L99.2541 15.3226L90.5133 37.4259C90.09 38.4784 89.5468 39.4397 88.8836 40.3098C88.2346 41.194 87.4022 41.9027 86.3863 42.436C85.3845 42.9692 84.1499 43.2359 82.6826 43.2359Z" fill="#313332"/>
<path d="M104.501 34.0367V30.416L116.416 15.5542H110.236L109.538 19.4485H105.009V11.2598H123.824V15.1963L112.586 29.6371H119.062L119.972 25.448H124.31V34.0367H104.501ZM111.146 6.43919V0H117.538V6.43919H111.146Z" fill="#313332"/>
<path d="M138.425 34.4788C136.168 34.4788 134.228 33.9876 132.605 33.0052C130.982 32.0229 129.741 30.6616 128.88 28.9214C128.019 27.1671 127.589 25.1533 127.589 22.8798V22.4377C127.589 20.1783 128.019 18.1785 128.88 16.4383C129.741 14.6841 130.975 13.3158 132.584 12.3334C134.206 11.337 136.139 10.8388 138.383 10.8388C140.654 10.8388 142.594 11.337 144.203 12.3334C145.811 13.3158 147.046 14.677 147.907 16.4172C148.767 18.1574 149.198 20.1643 149.198 22.4377V22.8798C149.198 25.1533 148.767 27.1671 147.907 28.9214C147.046 30.6616 145.811 32.0229 144.203 33.0052C142.594 33.9876 140.668 34.4788 138.425 34.4788ZM138.425 29.7634C139.497 29.7634 140.372 29.4757 141.049 28.9003C141.727 28.3249 142.228 27.525 142.552 26.5005C142.877 25.462 143.039 24.2551 143.039 22.8798V22.4377C143.039 21.0905 142.877 19.9046 142.552 18.8802C142.228 17.8417 141.72 17.0347 141.028 16.4593C140.351 15.8699 139.469 15.5752 138.383 15.5752C137.325 15.5752 136.45 15.8699 135.758 16.4593C135.067 17.0347 134.559 17.8417 134.235 18.8802C133.924 19.9046 133.769 21.0905 133.769 22.4377V22.8798C133.769 24.2551 133.924 25.462 134.235 26.5005C134.559 27.539 135.067 28.346 135.758 28.9214C136.45 29.4827 137.339 29.7634 138.425 29.7634ZM134.7 6.94441L138.912 1.19755H145.452L145.494 1.32386L139.653 6.94441H134.7Z" fill="#313332"/>
<path d="M159.249 34.0367L153.915 15.47L151.122 14.9647V11.2598H162.19V14.9437L159.778 15.4068L161.894 24.2692L162.317 26.0164H162.444L163.016 24.2692L167.714 11.2598H171.862L176.413 24.4376L177.005 26.29H177.132L177.683 24.4376L180.18 15.4279L177.513 14.9437V11.2598H188.349V14.9647L185.683 15.47L179.863 34.0367H174.656L170.466 22.7535L169.725 20.2485H169.598L168.857 22.7746L164.73 34.0367H159.249Z" fill="#313332"/>
<path d="M190.4 34.0367V30.3528L193.385 29.7213V5.53401L190.083 4.90248V1.19755H199.543V29.7213L202.21 30.3528V34.0367H190.4ZM204.982 34.0367V30.5423L206.718 30.1423L206.676 30.0581L202.146 23.9324L206.083 19.9117L213.596 29.7003L216.432 30.3528V34.0367H204.982ZM198.887 27.8057L195.924 24.3744L205.871 15.3226L205.914 15.2594L203.564 14.9226V11.2598H215.48V14.9647L212.517 15.7015L198.887 27.8057Z" fill="#313332"/>
<path d="M218.822 34.0367V30.3528L221.806 29.7213V15.5963L218.504 14.9647V11.2598H227.986V29.7213L230.949 30.3528V34.0367H218.822ZM221.594 6.43919V0H227.986V6.43919H221.594Z" fill="#313332"/>
<path d="M234.841 34.0367V27.4502H241V34.0367H234.841Z" fill="#313332"/>
<rect x="111.132" width="6.40532" height="6.48538" fill="#D94A56"/>
<rect x="221.784" width="6.40532" height="6.48538" fill="#D94A56"/>
</svg>
